# xmcd CD database file
#
# Track frame offsets:
#	150
#	10252
#	24752
#	39152
#	56760
#	70557
#	86005
#	99467
#	109005
#	121240
#	135832
#	146962
#	160115
#	173100
#	186987
#	198845
#
# Disc length: 2783 seconds
#
# Revision: 2
# Processed by: cddbd v1.4b41PL1 Copyright (c) Steve Scherf et al.
# Submitted via: Feurio! 1.50.2ß - http://www.feurio.com
#
DISCID=c70add10
DTITLE=Tom Astor - Country and Western Hits
DYEAR=1900
DGENRE=
TTITLE0=Wenn die Rosen blüh'n in Texas
TTITLE1=Ehrbares Mädchen
TTITLE2=Mein Daddy
TTITLE3=Lucille
TTITLE4=Trink sie dir schön
TTITLE5=Hielf mir durch die Nacht
TTITLE6=Hör' mal zu , Herr Minister
TTITLE7=Oh , nur mit dir
TTITLE8=Kopf hoch Mann
TTITLE9=Und dann träumt man von Las Vegas
TTITLE10=Gewöhn dich nicht an mein Bett
TTITLE11=Mann oh Mann
TTITLE12=Amanda
TTITLE13=Fuzzy , das war der größte
TTITLE14=Wer verliert , gewinnt irgendwann
TTITLE15=Adios Amigo
EXTD=
EXTT0=
EXTT1=
EXTT2=
EXTT3=
EXTT4=
EXTT5=
EXTT6=
EXTT7=
EXTT8=
EXTT9=
EXTT10=
EXTT11=
EXTT12=
EXTT13=
EXTT14=
EXTT15=
PLAYORDER=
